STARTFONT 2.1
COMMENT +
COMMENT  Copyright 1996 BIZNET Poland, Inc.
COMMENT
COMMENT  Designed by Stephen Gildea <gildea@lcs.mit.edu> from original designs.
COMMENT  November 1989
COMMENT
COMMENT  Characters above 127 designed and made by
COMMENT  Thomas Bagli (pyramid!pcsbst!tom@uunet.UU.NET)
COMMENT  PCS Computer Systeme, West Germany
COMMENT
COMMENT  This is an ISO8859-2 font derived from the ISO8859-1 font.
COMMENT  ISO8859-2 specific characters by BIZNET Poland, Inc.
COMMENT -
FONT -Misc-Fixed-Bold-R-Normal--13-120-75-75-C-70-ISO8859-2
SIZE 13 78 78
FONTBOUNDINGBOX 7 13 0 -2
STARTPROPERTIES 20
FOUNDRY "Misc"
FAMILY_NAME "Fixed"
WEIGHT_NAME "Bold"
SLANT "R"
SETWIDTH_NAME "Normal"
ADD_STYLE_NAME ""
PIXEL_SIZE 13
POINT_SIZE 120
RESOLUTION_X 75
RESOLUTION_Y 75
SPACING "C"
AVERAGE_WIDTH 70
CHARSET_REGISTRY "ISO8859"
CHARSET_ENCODING "2"
FONT_ASCENT 11
FONT_DESCENT 2
DEFAULT_CHAR 0
CHARSET_COLLECTIONS "ASCII ISO8859-2"
COPYRIGHT "Public domain font.  Share and enjoy. Copyright (c) 1996 BIZNET Poland, Inc. All Rights Reserved."
NOTICE "The name "BIZNET" is a registered trademark of BIZNET Poland, Inc."
ENDPROPERTIES
CHARS 222
STARTCHAR C000
ENCODING 0
SWIDTH 570 0
DWIDTH 7 0
BBX 7 13 0 -2
BITMAP
00
7C
7C
7C
7C
7C
7C
7C
7C
7C
7C
7C
00
ENDCHAR
STARTCHAR C001
ENCODING 1
SWIDTH 570 0
DWIDTH 7 0
BBX 7 13 0 -2
BITMAP
00
00
00
00
00
30
78
FC
78
30
00
00
00
ENDCHAR
STARTCHAR C002
ENCODING 2
SWIDTH 570 0
DWIDTH 7 0
BBX 7 13 0 -2
BITMAP
00
CC
30
CC
30
CC
30
CC
30
CC
30
CC
00
ENDCHAR
STARTCHAR C003
ENCODING 3
SWIDTH 570 0
DWIDTH 7 0
BBX 7 13 0 -2
BITMAP
00
D8
D8
F8
D8
D8
00
3C
18
18
18
18
00
ENDCHAR
STARTCHAR C004
ENCODING 4
SWIDTH 570 0
DWIDTH 7 0
BBX 7 13 0 -2
BITMAP
00
F0
C0
E0
C0
C0
00
3C
30
38
30
30
00
ENDCHAR
STARTCHAR C005
ENCODING 5
SWIDTH 570 0
DWIDTH 7 0
BBX 7 13 0 -2
BITMAP
00
70
C0
C0
C0
70
00
38
34
38
34
34
00
ENDCHAR
STARTCHAR C006
ENCODING 6
SWIDTH 570 0
DWIDTH 7 0
BBX 7 13 0 -2
BITMAP
00
C0
C0
C0
C0
F0
00
3C
30
38
30
30
00
ENDCHAR
STARTCHAR C007
ENCODING 7
SWIDTH 570 0
DWIDTH 7 0
BBX 7 13 0 -2
BITMAP
00
00
78
CC
CC
78
00
00
00
00
00
00
00
ENDCHAR
STARTCHAR C010
ENCODING 8
SWIDTH 570 0
DWIDTH 7 0
BBX 7 13 0 -2
BITMAP
00
00
30
30
FC
FC
30
30
00
FC
FC
00
00
ENDCHAR
STARTCHAR C011
ENCODING 9
SWIDTH 570 0
DWIDTH 7 0
BBX 7 13 0 -2
BITMAP
00
CC
EC
FC
DC
CC
00
30
30
30
30
3C
00
ENDCHAR
STARTCHAR C012
ENCODING 10
SWIDTH 570 0
DWIDTH 7 0
BBX 7 13 0 -2
BITMAP
00
CC
CC
48
78
30
00
3C
18
18
18
18
00
ENDCHAR
STARTCHAR C013
ENCODING 11
SWIDTH 570 0
DWIDTH 7 0
BBX 7 13 0 -2
BITMAP
30
30
30
30
30
30
F0
F0
00
00
00
00
00
ENDCHAR
STARTCHAR C014
ENCODING 12
SWIDTH 570 0
DWIDTH 7 0
BBX 7 13 0 -2
BITMAP
00
00
00
00
00
00
F0
F0
30
30
30
30
30
ENDCHAR
STARTCHAR C015
ENCODING 13
SWIDTH 570 0
DWIDTH 7 0
BBX 7 13 0 -2
BITMAP
00
00
00
00
00
00
3E
3E
30
30
30
30
30
ENDCHAR
STARTCHAR C016
ENCODING 14
SWIDTH 570 0
DWIDTH 7 0
BBX 7 13 0 -2
BITMAP
30
30
30
30
30
30
3E
3E
00
00
00
00
00
ENDCHAR
STARTCHAR C017
ENCODING 15
SWIDTH 570 0
DWIDTH 7 0
BBX 7 13 0 -2
BITMAP
30
30
30
30
30
30
FE
FE
30
30
30
30
30
ENDCHAR
STARTCHAR C020
ENCODING 16
SWIDTH 570 0
DWIDTH 7 0
BBX 7 13 0 -2
BITMAP
00
00
FE
FE
00
00
00
00
00
00
00
00
00
ENDCHAR
STARTCHAR C021
ENCODING 17
SWIDTH 570 0
DWIDTH 7 0
BBX 7 13 0 -2
BITMAP
00
00
00
00
FE
FE
00
00
00
00
00
00
00
ENDCHAR
STARTCHAR C022
ENCODING 18
SWIDTH 570 0
DWIDTH 7 0
BBX 7 13 0 -2
BITMAP
00
00
00
00
00
00
FE
FE
00
00
00
00
00
ENDCHAR
STARTCHAR C023
ENCODING 19
SWIDTH 570 0
DWIDTH 7 0
BBX 7 13 0 -2
BITMAP
00
00
00
00
00
00
00
00
FE
FE
00
00
00
ENDCHAR
STARTCHAR C024
ENCODING 20
SWIDTH 570 0
DWIDTH 7 0
BBX 7 13 0 -2
BITMAP
00
00
00
00
00
00
00
00
00
00
FE
FE
00
ENDCHAR
STARTCHAR C025
ENCODING 21
SWIDTH 570 0
DWIDTH 7 0
BBX 7 13 0 -2
BITMAP
30
30
30
30
30
30
3E
3E
30
30
30
30
30
ENDCHAR
STARTCHAR C026
ENCODING 22
SWIDTH 570 0
DWIDTH 7 0
BBX 7 13 0 -2
BITMAP
30
30
30
30
30
30
F0
F0
30
30
30
30
30
ENDCHAR
STARTCHAR C027
ENCODING 23
SWIDTH 570 0
DWIDTH 7 0
BBX 7 13 0 -2
BITMAP
30
30
30
30
30
30
FE
FE
00
00
00
00
00
ENDCHAR
STARTCHAR C030
ENCODING 24
SWIDTH 570 0
DWIDTH 7 0
BBX 7 13 0 -2
BITMAP
00
00
00
00
00
00
FE
FE
30
30
30
30
30
ENDCHAR
STARTCHAR C031
ENCODING 25
SWIDTH 570 0
DWIDTH 7 0
BBX 7 13 0 -2
BITMAP
30
30
30
30
30
30
30
30
30
30
30
30
30
ENDCHAR
STARTCHAR C032
ENCODING 26
SWIDTH 570 0
DWIDTH 7 0
BBX 7 13 0 -2
BITMAP
00
00
0C
18
60
C0
60
18
0C
FC
FC
00
00
ENDCHAR
STARTCHAR C033
ENCODING 27
SWIDTH 570 0
DWIDTH 7 0
BBX 7 13 0 -2
BITMAP
00
00
C0
60
18
0C
18
60
C0
FC
FC
00
00
ENDCHAR
STARTCHAR C034
ENCODING 28
SWIDTH 570 0
DWIDTH 7 0
BBX 7 13 0 -2
BITMAP
00
00
00
00
00
FC
6C
6C
6C
EC
CC
00
00
ENDCHAR
STARTCHAR C035
ENCODING 29
SWIDTH 570 0
DWIDTH 7 0
BBX 7 13 0 -2
BITMAP
00
00
04
0C
FC
FC
30
FC
FC
C0
80
00
00
ENDCHAR
STARTCHAR C036
ENCODING 30
SWIDTH 570 0
DWIDTH 7 0
BBX 7 13 0 -2
BITMAP
00
00
38
6C
60
60
F8
60
60
6C
B8
00
00
ENDCHAR
STARTCHAR C037
ENCODING 31
SWIDTH 570 0
DWIDTH 7 0
BBX 7 13 0 -2
BITMAP
00
00
00
00
00
00
30
30
00
00
00
00
00
ENDCHAR
STARTCHAR space
ENCODING 32
SWIDTH 570 0
DWIDTH 7 0
BBX 7 13 0 -2
BITMAP
00
00
00
00
00
00
00
00
00
00
00
00
00
ENDCHAR
STARTCHAR exclam
ENCODING 33
SWIDTH 570 0
DWIDTH 7 0
BBX 7 13 0 -2
BITMAP
00
00
30
30
30
30
30
30
00
30
30
00
00
ENDCHAR
STARTCHAR quotedbl
ENCODING 34
SWIDTH 570 0
DWIDTH 7 0
BBX 7 13 0 -2
BITMAP
00
00
6C
6C
6C
00
00
00
00
00
00
00
00
ENDCHAR
STARTCHAR numbersign
ENCODING 35
SWIDTH 570 0
DWIDTH 7 0
BBX 7 13 0 -2
BITMAP
00
00
28
28
7C
7C
28
7C
7C
28
28
00
00
ENDCHAR
STARTCHAR dollar
ENCODING 36
SWIDTH 570 0
DWIDTH 7 0
BBX 7 13 0 -2
BITMAP
00
00
30
78
B4
B0
78
34
B4
78
30
00
00
ENDCHAR
STARTCHAR percent
ENCODING 37
SWIDTH 570 0
DWIDTH 7 0
BBX 7 13 0 -2
BITMAP
00
00
E4
AC
E8
18
30
60
5C
D4
9C
00
00
ENDCHAR
STARTCHAR ampersand
ENCODING 38
SWIDTH 570 0
DWIDTH 7 0
BBX 7 13 0 -2
BITMAP
00
00
70
D8
D8
D8
70
D4
DC
D8
74
00
00
ENDCHAR
STARTCHAR quoteright
ENCODING 39
SWIDTH 570 0
DWIDTH 7 0
BBX 7 13 0 -2
BITMAP
00
00
38
38
30
60
00
00
00
00
00
00
00
ENDCHAR
STARTCHAR parenleft
ENCODING 40
SWIDTH 570 0
DWIDTH 7 0
BBX 7 13 0 -2
BITMAP
00
00
18
30
30
60
60
60
30
30
18
00
00
ENDCHAR
STARTCHAR parenright
ENCODING 41
SWIDTH 570 0
DWIDTH 7 0
BBX 7 13 0 -2
BITMAP
00
00
60
30
30
18
18
18
30
30
60
00
00
ENDCHAR
STARTCHAR asterisk
ENCODING 42
SWIDTH 570 0
DWIDTH 7 0
BBX 7 13 0 -2
BITMAP
00
00
00
00
48
30
FC
FC
30
48
00
00
00
ENDCHAR
STARTCHAR plus
ENCODING 43
SWIDTH 570 0
DWIDTH 7 0
BBX 7 13 0 -2
BITMAP
00
00
00
00
30
30
FC
FC
30
30
00
00
00
ENDCHAR
STARTCHAR comma
ENCODING 44
SWIDTH 570 0
DWIDTH 7 0
BBX 7 13 0 -2
BITMAP
00
00
00
00
00
00
00
00
38
38
30
60
00
ENDCHAR
STARTCHAR minus
ENCODING 45
SWIDTH 570 0
DWIDTH 7 0
BBX 7 13 0 -2
BITMAP
00
00
00
00
00
00
FC
FC
00
00
00
00
00
ENDCHAR
STARTCHAR period
ENCODING 46
SWIDTH 570 0
DWIDTH 7 0
BBX 7 13 0 -2
BITMAP
00
00
00
00
00
00
00
00
00
30
78
30
00
ENDCHAR
STARTCHAR slash
ENCODING 47
SWIDTH 570 0
DWIDTH 7 0
BBX 7 13 0 -2
BITMAP
00
00
0C
0C
18
18
30
60
60
C0
C0
00
00
ENDCHAR
STARTCHAR zero
ENCODING 48
SWIDTH 570 0
DWIDTH 7 0
BBX 7 13 0 -2
BITMAP
00
00
30
48
CC
CC
CC
CC
CC
48
30
00
00
ENDCHAR
STARTCHAR one
ENCODING 49
SWIDTH 570 0
DWIDTH 7 0
BBX 7 13 0 -2
BITMAP
00
00
30
70
B0
30
30
30
30
30
FC
00
00
ENDCHAR
STARTCHAR two
ENCODING 50
SWIDTH 570 0
DWIDTH 7 0
BBX 7 13 0 -2
BITMAP
00
00
78
CC
CC
0C
38
60
C0
C0
FC
00
00
ENDCHAR
STARTCHAR three
ENCODING 51
SWIDTH 570 0
DWIDTH 7 0
BBX 7 13 0 -2
BITMAP
00
00
FC
0C
18
30
78
0C
0C
CC
78
00
00
ENDCHAR
STARTCHAR four
ENCODING 52
SWIDTH 570 0
DWIDTH 7 0
BBX 7 13 0 -2
BITMAP
00
00
0C
1C
3C
6C
CC
CC
FC
0C
0C
00
00
ENDCHAR
STARTCHAR five
ENCODING 53
SWIDTH 570 0
DWIDTH 7 0
BBX 7 13 0 -2
BITMAP
00
00
FC
C0
C0
F8
CC
0C
0C
CC
78
00
00
ENDCHAR
STARTCHAR six
ENCODING 54
SWIDTH 570 0
DWIDTH 7 0
BBX 7 13 0 -2
BITMAP
00
00
78
CC
C0
C0
F8
CC
CC
CC
78
00
00
ENDCHAR
STARTCHAR seven
ENCODING 55
SWIDTH 570 0
DWIDTH 7 0
BBX 7 13 0 -2
BITMAP
00
00
FC
0C
0C
18
18
30
30
60
60
00
00
ENDCHAR
STARTCHAR eight
ENCODING 56
SWIDTH 570 0
DWIDTH 7 0
BBX 7 13 0 -2
BITMAP
00
00
78
CC
CC
CC
78
CC
CC
CC
78
00
00
ENDCHAR
STARTCHAR nine
ENCODING 57
SWIDTH 570 0
DWIDTH 7 0
BBX 7 13 0 -2
BITMAP
00
00
78
CC
CC
CC
7C
0C
0C
CC
78
00
00
ENDCHAR
STARTCHAR colon
ENCODING 58
SWIDTH 570 0
DWIDTH 7 0
BBX 7 13 0 -2
BITMAP
00
00
00
00
30
78
30
00
00
30
78
30
00
ENDCHAR
STARTCHAR semicolon
ENCODING 59
SWIDTH 570 0
DWIDTH 7 0
BBX 7 13 0 -2
BITMAP
00
00
00
00
30
78
30
00
38
38
30
60
00
ENDCHAR
STARTCHAR less
ENCODING 60
SWIDTH 570 0
DWIDTH 7 0
BBX 7 13 0 -2
BITMAP
00
00
0C
18
30
60
C0
60
30
18
0C
00
00
ENDCHAR
STARTCHAR equal
ENCODING 61
SWIDTH 570 0
DWIDTH 7 0
BBX 7 13 0 -2
BITMAP
00
00
00
00
FC
FC
00
FC
FC
00
00
00
00
ENDCHAR
STARTCHAR greater
ENCODING 62
SWIDTH 570 0
DWIDTH 7 0
BBX 7 13 0 -2
BITMAP
00
00
C0
60
30
18
0C
18
30
60
C0
00
00
ENDCHAR
STARTCHAR question
ENCODING 63
SWIDTH 570 0
DWIDTH 7 0
BBX 7 13 0 -2
BITMAP
00
00
78
CC
CC
0C
38
30
00
30
30
00
00
ENDCHAR
STARTCHAR at
ENCODING 64
SWIDTH 570 0
DWIDTH 7 0
BBX 7 13 0 -2
BITMAP
00
00
78
8C
8C
BC
AC
BC
80
8C
78
00
00
ENDCHAR
STARTCHAR A
ENCODING 65
SWIDTH 570 0
DWIDTH 7 0
BBX 7 13 0 -2
BITMAP
00
00
78
CC
CC
CC
FC
CC
CC
CC
CC
00
00
ENDCHAR
STARTCHAR B
ENCODING 66
SWIDTH 570 0
DWIDTH 7 0
BBX 7 13 0 -2
BITMAP
00
00
F8
CC
CC
CC
F8
CC
CC
CC
F8
00
00
ENDCHAR
STARTCHAR C
ENCODING 67
SWIDTH 570 0
DWIDTH 7 0
BBX 7 13 0 -2
BITMAP
00
00
78
CC
C0
C0
C0
C0
C0
CC
78
00
00
ENDCHAR
STARTCHAR D
ENCODING 68
SWIDTH 570 0
DWIDTH 7 0
BBX 7 13 0 -2
BITMAP
00
00
F8
CC
CC
CC
CC
CC
CC
CC
F8
00
00
ENDCHAR
STARTCHAR E
ENCODING 69
SWIDTH 570 0
DWIDTH 7 0
BBX 7 13 0 -2
BITMAP
00
00
FC
C0
C0
C0
F8
C0
C0
C0
FC
00
00
ENDCHAR
STARTCHAR F
ENCODING 70
SWIDTH 570 0
DWIDTH 7 0
BBX 7 13 0 -2
BITMAP
00
00
FC
C0
C0
C0
F8
C0
C0
C0
C0
00
00
ENDCHAR
STARTCHAR G
ENCODING 71
SWIDTH 570 0
DWIDTH 7 0
BBX 7 13 0 -2
BITMAP
00
00
78
CC
C0
C0
DC
CC
CC
CC
7C
00
00
ENDCHAR
STARTCHAR H
ENCODING 72
SWIDTH 570 0
DWIDTH 7 0
BBX 7 13 0 -2
BITMAP
00
00
CC
CC
CC
CC
FC
CC
CC
CC
CC
00
00
ENDCHAR
STARTCHAR I
ENCODING 73
SWIDTH 570 0
DWIDTH 7 0
BBX 7 13 0 -2
BITMAP
00
00
FC
30
30
30
30
30
30
30
FC
00
00
ENDCHAR
STARTCHAR J
ENCODING 74
SWIDTH 570 0
DWIDTH 7 0
BBX 7 13 0 -2
BITMAP
00
00
0C
0C
0C
0C
0C
0C
0C
CC
78
00
00
ENDCHAR
STARTCHAR K
ENCODING 75
SWIDTH 570 0
DWIDTH 7 0
BBX 7 13 0 -2
BITMAP
00
00
C4
CC
D8
F0
E0
F0
D8
CC
C4
00
00
ENDCHAR
STARTCHAR L
ENCODING 76
SWIDTH 570 0
DWIDTH 7 0
BBX 7 13 0 -2
BITMAP
00
00
C0
C0
C0
C0
C0
C0
C0
C0
FC
00
00
ENDCHAR
STARTCHAR M
ENCODING 77
SWIDTH 570 0
DWIDTH 7 0
BBX 7 13 0 -2
BITMAP
00
00
84
CC
FC
FC
CC
CC
CC
CC
CC
00
00
ENDCHAR
STARTCHAR N
ENCODING 78
SWIDTH 570 0
DWIDTH 7 0
BBX 7 13 0 -2
BITMAP
00
00
CC
CC
EC
EC
FC
DC
DC
CC
CC
00
00
ENDCHAR
STARTCHAR O
ENCODING 79
SWIDTH 570 0
DWIDTH 7 0
BBX 7 13 0 -2
BITMAP
00
00
78
CC
CC
CC
CC
CC
CC
CC
78
00
00
ENDCHAR
STARTCHAR P
ENCODING 80
SWIDTH 570 0
DWIDTH 7 0
BBX 7 13 0 -2
BITMAP
00
00
F8
CC
CC
CC
F8
C0
C0
C0
C0
00
00
ENDCHAR
STARTCHAR Q
ENCODING 81
SWIDTH 570 0
DWIDTH 7 0
BBX 7 13 0 -2
BITMAP
00
00
78
CC
CC
CC
CC
CC
EC
DC
78
0C
00
ENDCHAR
STARTCHAR R
ENCODING 82
SWIDTH 570 0
DWIDTH 7 0
BBX 7 13 0 -2
BITMAP
00
00
F8
CC
CC
CC
F8
F0
D8
CC
C4
00
00
ENDCHAR
STARTCHAR S
ENCODING 83
SWIDTH 570 0
DWIDTH 7 0
BBX 7 13 0 -2
BITMAP
00
00
78
CC
C0
C0
78
0C
0C
CC
78
00
00
ENDCHAR
STARTCHAR T
ENCODING 84
SWIDTH 570 0
DWIDTH 7 0
BBX 7 13 0 -2
BITMAP
00
00
FC
30
30
30
30
30
30
30
30
00
00
ENDCHAR
STARTCHAR U
ENCODING 85
SWIDTH 570 0
DWIDTH 7 0
BBX 7 13 0 -2
BITMAP
00
00
CC
CC
CC
CC
CC
CC
CC
CC
78
00
00
ENDCHAR
STARTCHAR V
ENCODING 86
SWIDTH 570 0
DWIDTH 7 0
BBX 7 13 0 -2
BITMAP
00
00
CC
CC
CC
48
48
78
30
30
30
00
00
ENDCHAR
STARTCHAR W
ENCODING 87
SWIDTH 570 0
DWIDTH 7 0
BBX 7 13 0 -2
BITMAP
00
00
CC
CC
CC
CC
CC
FC
FC
CC
84
00
00
ENDCHAR
STARTCHAR X
ENCODING 88
SWIDTH 570 0
DWIDTH 7 0
BBX 7 13 0 -2
BITMAP
00
00
84
CC
48
78
30
78
48
CC
84
00
00
ENDCHAR
STARTCHAR Y
ENCODING 89
SWIDTH 570 0
DWIDTH 7 0
BBX 7 13 0 -2
BITMAP
00
00
CC
CC
78
78
30
30
30
30
30
00
00
ENDCHAR
STARTCHAR Z
ENCODING 90
SWIDTH 570 0
DWIDTH 7 0
BBX 7 13 0 -2
BITMAP
00
00
FC
0C
0C
18
30
60
C0
C0
FC
00
00
ENDCHAR
STARTCHAR bracketright
ENCODING 93
SWIDTH 570 0
DWIDTH 7 0
BBX 7 13 0 -2
BITMAP
00
00
78
18
18
18
18
18
18
18
78
00
00
ENDCHAR
STARTCHAR backslash
ENCODING 92
SWIDTH 570 0
DWIDTH 7 0
BBX 7 13 0 -2
BITMAP
00
00
C0
C0
60
60
30
18
18
0C
0C
00
00
ENDCHAR
STARTCHAR bracketleft
ENCODING 91
SWIDTH 570 0
DWIDTH 7 0
BBX 7 13 0 -2
BITMAP
00
00
78
60
60
60
60
60
60
60
78
00
00
ENDCHAR
STARTCHAR asciicircum
ENCODING 94
SWIDTH 570 0
DWIDTH 7 0
BBX 7 13 0 -2
BITMAP
00
00
30
78
CC
84
00
00
00
00
00
00
00
ENDCHAR
STARTCHAR underscore
ENCODING 95
SWIDTH 570 0
DWIDTH 7 0
BBX 7 13 0 -2
BITMAP
00
00
00
00
00
00
00
00
00
00
FC
FC
00
ENDCHAR
STARTCHAR quoteleft
ENCODING 96
SWIDTH 570 0
DWIDTH 7 0
BBX 7 13 0 -2
BITMAP
00
00
70
70
30
18
00
00
00
00
00
00
00
ENDCHAR
STARTCHAR a
ENCODING 97
SWIDTH 570 0
DWIDTH 7 0
BBX 7 13 0 -2
BITMAP
00
00
00
00
00
78
0C
7C
CC
CC
7C
00
00
ENDCHAR
STARTCHAR b
ENCODING 98
SWIDTH 570 0
DWIDTH 7 0
BBX 7 13 0 -2
BITMAP
00
00
C0
C0
C0
F8
CC
CC
CC
CC
F8
00
00
ENDCHAR
STARTCHAR c
ENCODING 99
SWIDTH 570 0
DWIDTH 7 0
BBX 7 13 0 -2
BITMAP
00
00
00
00
00
78
CC
C0
C0
CC
78
00
00
ENDCHAR
STARTCHAR d
ENCODING 100
SWIDTH 570 0
DWIDTH 7 0
BBX 7 13 0 -2
BITMAP
00
00
0C
0C
0C
7C
CC
CC
CC
CC
7C
00
00
ENDCHAR
STARTCHAR e
ENCODING 101
SWIDTH 570 0
DWIDTH 7 0
BBX 7 13 0 -2
BITMAP
00
00
00
00
00
78
CC
FC
C0
CC
78
00
00
ENDCHAR
STARTCHAR f
ENCODING 102
SWIDTH 570 0
DWIDTH 7 0
BBX 7 13 0 -2
BITMAP
00
00
38
6C
60
60
F0
60
60
60
60
00
00
ENDCHAR
STARTCHAR g
ENCODING 103
SWIDTH 570 0
DWIDTH 7 0
BBX 7 13 0 -2
BITMAP
00
00
00
00
00
74
CC
CC
78
C0
78
CC
78
ENDCHAR
STARTCHAR h
ENCODING 104
SWIDTH 570 0
DWIDTH 7 0
BBX 7 13 0 -2
BITMAP
00
00
C0
C0
C0
F8
CC
CC
CC
CC
CC
00
00
ENDCHAR
STARTCHAR i
ENCODING 105
SWIDTH 570 0
DWIDTH 7 0
BBX 7 13 0 -2
BITMAP
00
00
30
30
00
70
30
30
30
30
FC
00
00
ENDCHAR
STARTCHAR j
ENCODING 106
SWIDTH 570 0
DWIDTH 7 0
BBX 7 13 0 -2
BITMAP
00
00
0C
0C
00
0C
0C
0C
0C
0C
0C
CC
78
ENDCHAR
STARTCHAR k
ENCODING 107
SWIDTH 570 0
DWIDTH 7 0
BBX 7 13 0 -2
BITMAP
00
00
C0
C0
C0
CC
D8
F0
F0
D8
CC
00
00
ENDCHAR
STARTCHAR l
ENCODING 108
SWIDTH 570 0
DWIDTH 7 0
BBX 7 13 0 -2
BITMAP
00
00
70
30
30
30
30
30
30
30
FC
00
00
ENDCHAR
STARTCHAR m
ENCODING 109
SWIDTH 570 0
DWIDTH 7 0
BBX 7 13 0 -2
BITMAP
00
00
00
00
00
D8
FC
FC
CC
CC
CC
00
00
ENDCHAR
STARTCHAR n
ENCODING 110
SWIDTH 570 0
DWIDTH 7 0
BBX 7 13 0 -2
BITMAP
00
00
00
00
00
F8
CC
CC
CC
CC
CC
00
00
ENDCHAR
STARTCHAR o
ENCODING 111
SWIDTH 570 0
DWIDTH 7 0
BBX 7 13 0 -2
BITMAP
00
00
00
00
00
78
CC
CC
CC
CC
78
00
00
ENDCHAR
STARTCHAR p
ENCODING 112
SWIDTH 570 0
DWIDTH 7 0
BBX 7 13 0 -2
BITMAP
00
00
00
00
00
F8
CC
CC
CC
F8
C0
C0
C0
ENDCHAR
STARTCHAR q
ENCODING 113
SWIDTH 570 0
DWIDTH 7 0
BBX 7 13 0 -2
BITMAP
00
00
00
00
00
7C
CC
CC
CC
7C
0C
0C
0C
ENDCHAR
STARTCHAR r
ENCODING 114
SWIDTH 570 0
DWIDTH 7 0
BBX 7 13 0 -2
BITMAP
00
00
00
00
00
F8
CC
C0
C0
C0
C0
00
00
ENDCHAR
STARTCHAR s
ENCODING 115
SWIDTH 570 0
DWIDTH 7 0
BBX 7 13 0 -2
BITMAP
00
00
00
00
00
78
CC
60
18
CC
78
00
00
ENDCHAR
STARTCHAR t
ENCODING 116
SWIDTH 570 0
DWIDTH 7 0
BBX 7 13 0 -2
BITMAP
00
00
00
60
60
F8
60
60
60
6C
38
00
00
ENDCHAR
STARTCHAR u
ENCODING 117
SWIDTH 570 0
DWIDTH 7 0
BBX 7 13 0 -2
BITMAP
00
00
00
00
00
CC
CC
CC
CC
CC
7C
00
00
ENDCHAR
STARTCHAR v
ENCODING 118
SWIDTH 570 0
DWIDTH 7 0
BBX 7 13 0 -2
BITMAP
00
00
00
00
00
CC
CC
CC
78
78
30
00
00
ENDCHAR
STARTCHAR w
ENCODING 119
SWIDTH 570 0
DWIDTH 7 0
BBX 7 13 0 -2
BITMAP
00
00
00
00
00
CC
CC
CC
FC
FC
48
00
00
ENDCHAR
STARTCHAR x
ENCODING 120
SWIDTH 570 0
DWIDTH 7 0
BBX 7 13 0 -2
BITMAP
00
00
00
00
00
CC
CC
78
78
CC
CC
00
00
ENDCHAR
STARTCHAR y
ENCODING 121
SWIDTH 570 0
DWIDTH 7 0
BBX 7 13 0 -2
BITMAP
00
00
00
00
00
CC
CC
CC
CC
7C
0C
CC
78
ENDCHAR
STARTCHAR z
ENCODING 122
SWIDTH 570 0
DWIDTH 7 0
BBX 7 13 0 -2
BITMAP
00
00
00
00
00
FC
0C
18
60
C0
FC
00
00
ENDCHAR
STARTCHAR braceleft
ENCODING 123
SWIDTH 570 0
DWIDTH 7 0
BBX 7 13 0 -2
BITMAP
00
00
38
60
60
30
60
30
60
60
38
00
00
ENDCHAR
STARTCHAR bar
ENCODING 124
SWIDTH 570 0
DWIDTH 7 0
BBX 7 13 0 -2
BITMAP
00
00
30
30
30
30
30
30
30
30
30
00
00
ENDCHAR
STARTCHAR braceright
ENCODING 125
SWIDTH 570 0
DWIDTH 7 0
BBX 7 13 0 -2
BITMAP
00
00
70
18
18
30
18
30
18
18
70
00
00
ENDCHAR
STARTCHAR asciitilde
ENCODING 126
SWIDTH 570 0
DWIDTH 7 0
BBX 7 13 0 -2
BITMAP
00
00
64
FC
98
00
00
00
00
00
00
00
00
ENDCHAR
STARTCHAR Aogonek
ENCODING 161
SWIDTH 570 0
DWIDTH 7 0
BBX 7 13 0 -2
BITMAP
00
00
78
CC
CC
CC
FC
CC
CC
CC
CC
06
02
ENDCHAR
STARTCHAR breve
ENCODING 162
SWIDTH 570 0
DWIDTH 7 0
BBX 7 13 0 -2
BITMAP
00
88
70
00
00
00
00
00
00
00
00
00
00
ENDCHAR
STARTCHAR Lslash
ENCODING 163
SWIDTH 570 0
DWIDTH 7 0
BBX 7 13 0 -2
BITMAP
00
00
60
60
60
60
78
E0
60
60
7E
00
00
ENDCHAR
STARTCHAR currency
ENCODING 164
SWIDTH 570 0
DWIDTH 7 0
BBX 7 13 0 -2
BITMAP
00
00
00
00
CC
FC
48
48
FC
CC
00
00
00
ENDCHAR
STARTCHAR Lcaron
ENCODING 165
SWIDTH 570 0
DWIDTH 7 0
BBX 7 13 0 -2
BITMAP
00
00
DC
DC
D8
F0
C0
C0
C0
C0
FC
00
00
ENDCHAR
STARTCHAR Sacute
ENCODING 166
SWIDTH 570 0
DWIDTH 7 0
BBX 7 13 0 -2
BITMAP
00
18
30
00
78
CC
C0
78
0C
CC
78
00
00
ENDCHAR
STARTCHAR section
ENCODING 167
SWIDTH 570 0
DWIDTH 7 0
BBX 7 13 0 -2
BITMAP
00
78
CC
C0
78
CC
CC
78
0C
CC
78
00
00
ENDCHAR
STARTCHAR dieresis
ENCODING 168
SWIDTH 570 0
DWIDTH 7 0
BBX 7 13 0 -2
BITMAP
00
6C
6C
00
00
00
00
00
00
00
00
00
00
ENDCHAR
STARTCHAR Scaron
ENCODING 169
SWIDTH 570 0
DWIDTH 7 0
BBX 7 13 0 -2
BITMAP
00
6C
38
00
78
CC
C0
78
0C
CC
78
00
00
ENDCHAR
STARTCHAR Scedilla
ENCODING 170
SWIDTH 570 0
DWIDTH 7 0
BBX 7 13 0 -2
BITMAP
00
00
78
CC
C0
C0
78
0C
0C
CC
78
30
60
ENDCHAR
STARTCHAR Tcaron
ENCODING 171
SWIDTH 570 0
DWIDTH 7 0
BBX 7 13 0 -2
BITMAP
00
6C
38
00
FC
30
30
30
30
30
30
00
00
ENDCHAR
STARTCHAR Zacute
ENCODING 172
SWIDTH 570 0
DWIDTH 7 0
BBX 7 13 0 -2
BITMAP
00
18
30
00
FC
0C
18
30
60
C0
FC
00
00
ENDCHAR
STARTCHAR hyphen
ENCODING 173
SWIDTH 570 0
DWIDTH 7 0
BBX 7 13 0 -2
BITMAP
00
00
00
00
00
7C
7C
00
00
00
00
00
00
ENDCHAR
STARTCHAR Zcaron
ENCODING 174
SWIDTH 570 0
DWIDTH 7 0
BBX 7 13 0 -2
BITMAP
00
6C
38
00
FC
0C
18
30
60
C0
FC
00
00
ENDCHAR
STARTCHAR Zdotaccent
ENCODING 175
SWIDTH 570 0
DWIDTH 7 0
BBX 7 13 0 -2
BITMAP
00
30
30
00
FC
0C
18
30
60
C0
FC
00
00
ENDCHAR
STARTCHAR degree
ENCODING 176
SWIDTH 570 0
DWIDTH 7 0
BBX 7 13 0 -2
BITMAP
00
00
78
CC
CC
78
00
00
00
00
00
00
00
ENDCHAR
STARTCHAR aogonek
ENCODING 177
SWIDTH 570 0
DWIDTH 7 0
BBX 7 13 0 -2
BITMAP
00
00
00
00
00
78
0C
7C
CC
CC
7C
06
02
ENDCHAR
STARTCHAR ogonek
ENCODING 178
SWIDTH 570 0
DWIDTH 7 0
BBX 7 13 0 -2
BITMAP
00
00
00
00
00
00
00
00
00
00
00
60
30
ENDCHAR
STARTCHAR lslash
ENCODING 179
SWIDTH 570 0
DWIDTH 7 0
BBX 7 13 0 -2
BITMAP
00
00
70
30
30
38
70
30
30
30
FC
00
00
ENDCHAR
STARTCHAR acute
ENCODING 180
SWIDTH 570 0
DWIDTH 7 0
BBX 7 13 0 -2
BITMAP
00
18
30
00
00
00
00
00
00
00
00
00
00
ENDCHAR
STARTCHAR lcaron
ENCODING 181
SWIDTH 570 0
DWIDTH 7 0
BBX 7 13 0 -2
BITMAP
00
00
76
36
30
30
30
30
30
30
FC
00
00
ENDCHAR
STARTCHAR sacute
ENCODING 182
SWIDTH 570 0
DWIDTH 7 0
BBX 7 13 0 -2
BITMAP
00
18
30
00
00
78
CC
60
18
CC
78
00
00
ENDCHAR
STARTCHAR caron
ENCODING 183
SWIDTH 570 0
DWIDTH 7 0
BBX 7 13 0 -2
BITMAP
00
D8
70
00
00
00
00
00
00
00
00
00
00
ENDCHAR
STARTCHAR cedilla
ENCODING 184
SWIDTH 570 0
DWIDTH 7 0
BBX 7 13 0 -2
BITMAP
00
00
00
00
00
00
00
00
00
00
00
30
60
ENDCHAR
STARTCHAR scaron
ENCODING 185
SWIDTH 570 0
DWIDTH 7 0
BBX 7 13 0 -2
BITMAP
00
6C
38
00
00
78
CC
60
18
CC
78
00
00
ENDCHAR
STARTCHAR scedilla
ENCODING 186
SWIDTH 570 0
DWIDTH 7 0
BBX 7 13 0 -2
BITMAP
00
00
00
00
00
78
CC
60
18
CC
78
30
60
ENDCHAR
STARTCHAR tcaron
ENCODING 187
SWIDTH 570 0
DWIDTH 7 0
BBX 7 13 0 -2
BITMAP
00
00
00
6C
6C
F0
60
60
60
6C
38
00
00
ENDCHAR
STARTCHAR zacute
ENCODING 188
SWIDTH 570 0
DWIDTH 7 0
BBX 7 13 0 -2
BITMAP
00
18
30
00
00
FC
0C
18
60
C0
FC
00
00
ENDCHAR
STARTCHAR hungarumlaut
ENCODING 189
SWIDTH 570 0
DWIDTH 7 0
BBX 7 13 0 -2
BITMAP
00
14
28
00
00
00
00
00
00
00
00
00
00
ENDCHAR
STARTCHAR zcaron
ENCODING 190
SWIDTH 570 0
DWIDTH 7 0
BBX 7 13 0 -2
BITMAP
00
6C
38
00
00
FC
0C
18
60
C0
FC
00
00
ENDCHAR
STARTCHAR zdotaccent
ENCODING 191
SWIDTH 570 0
DWIDTH 7 0
BBX 7 13 0 -2
BITMAP
00
30
30
00
00
FC
0C
18
60
C0
FC
00
00
ENDCHAR
STARTCHAR Racute
ENCODING 192
SWIDTH 570 0
DWIDTH 7 0
BBX 7 13 0 -2
BITMAP
00
18
30
00
F8
CC
CC
F0
D8
CC
C4
00
00
ENDCHAR
STARTCHAR Aacute
ENCODING 193
SWIDTH 570 0
DWIDTH 7 0
BBX 7 13 0 -2
BITMAP
00
18
30
00
30
78
CC
CC
FC
CC
CC
00
00
ENDCHAR
STARTCHAR Acircumflex
ENCODING 194
SWIDTH 570 0
DWIDTH 7 0
BBX 7 13 0 -2
BITMAP
00
70
D8
00
30
78
CC
CC
FC
CC
CC
00
00
ENDCHAR
STARTCHAR Abreve
ENCODING 195
SWIDTH 570 0
DWIDTH 7 0
BBX 7 13 0 -2
BITMAP
00
84
78
00
30
78
CC
CC
FC
CC
CC
00
00
ENDCHAR
STARTCHAR Adieresis
ENCODING 196
SWIDTH 570 0
DWIDTH 7 0
BBX 7 13 0 -2
BITMAP
00
CC
CC
00
30
78
CC
CC
FC
CC
CC
00
00
ENDCHAR
STARTCHAR Lacute
ENCODING 197
SWIDTH 570 0
DWIDTH 7 0
BBX 7 13 0 -2
BITMAP
00
60
C0
00
C0
C0
C0
C0
C0
C0
FC
00
00
ENDCHAR
STARTCHAR Cacute
ENCODING 198
SWIDTH 570 0
DWIDTH 7 0
BBX 7 13 0 -2
BITMAP
00
18
30
00
78
CC
C0
C0
C0
CC
78
00
00
ENDCHAR
STARTCHAR Ccedilla
ENCODING 199
SWIDTH 570 0
DWIDTH 7 0
BBX 7 13 0 -2
BITMAP
00
00
78
CC
C0
C0
C0
C0
C0
CC
78
30
60
ENDCHAR
STARTCHAR Ccaron
ENCODING 200
SWIDTH 570 0
DWIDTH 7 0
BBX 7 13 0 -2
BITMAP
00
6C
38
00
78
CC
C0
C0
C0
CC
78
00
00
ENDCHAR
STARTCHAR Eacute
ENCODING 201
SWIDTH 570 0
DWIDTH 7 0
BBX 7 13 0 -2
BITMAP
00
18
30
00
FC
C0
C0
F0
C0
C0
FC
00
00
ENDCHAR
STARTCHAR Eogonek
ENCODING 202
SWIDTH 570 0
DWIDTH 7 0
BBX 7 13 0 -2
BITMAP
00
00
FC
C0
C0
C0
F8
C0
C0
C0
FC
18
0C
ENDCHAR
STARTCHAR Edieresis
ENCODING 203
SWIDTH 570 0
DWIDTH 7 0
BBX 7 13 0 -2
BITMAP
00
CC
CC
00
FC
C0
C0
F0
C0
C0
FC
00
00
ENDCHAR
STARTCHAR Ecaron
ENCODING 204
SWIDTH 570 0
DWIDTH 7 0
BBX 7 13 0 -2
BITMAP
00
D8
70
00
FC
C0
C0
F0
C0
C0
FC
00
00
ENDCHAR
STARTCHAR Iacute
ENCODING 205
SWIDTH 570 0
DWIDTH 7 0
BBX 7 13 0 -2
BITMAP
00
18
30
00
FC
30
30
30
30
30
FC
00
00
ENDCHAR
STARTCHAR Icircumflex
ENCODING 206
SWIDTH 570 0
DWIDTH 7 0
BBX 7 13 0 -2
BITMAP
00
70
D8
00
FC
30
30
30
30
30
FC
00
00
ENDCHAR
STARTCHAR Dcaron
ENCODING 207
SWIDTH 570 0
DWIDTH 7 0
BBX 7 13 0 -2
BITMAP
00
D8
70
00
F8
CC
CC
CC
CC
CC
F8
00
00
ENDCHAR
STARTCHAR Eth
ENCODING 208
SWIDTH 570 0
DWIDTH 7 0
BBX 7 13 0 -2
BITMAP
00
00
F8
6C
6C
6C
EC
6C
6C
6C
F8
00
00
ENDCHAR
STARTCHAR Nacute
ENCODING 209
SWIDTH 570 0
DWIDTH 7 0
BBX 7 13 0 -2
BITMAP
00
18
30
00
CC
CC
EC
FC
DC
CC
CC
00
00
ENDCHAR
STARTCHAR Ncaron
ENCODING 210
SWIDTH 570 0
DWIDTH 7 0
BBX 7 13 0 -2
BITMAP
00
D8
70
00
CC
CC
EC
FC
DC
CC
CC
00
00
ENDCHAR
STARTCHAR Oacute
ENCODING 211
SWIDTH 570 0
DWIDTH 7 0
BBX 7 13 0 -2
BITMAP
00
18
30
00
78
CC
CC
CC
CC
CC
78
00
00
ENDCHAR
STARTCHAR Ocircumflex
ENCODING 212
SWIDTH 570 0
DWIDTH 7 0
BBX 7 13 0 -2
BITMAP
00
70
D8
00
78
CC
CC
CC
CC
CC
78
00
00
ENDCHAR
STARTCHAR Ohungarumlaut
ENCODING 213
SWIDTH 570 0
DWIDTH 7 0
BBX 7 13 0 -2
BITMAP
00
6C
D8
00
78
CC
CC
CC
CC
CC
78
00
00
ENDCHAR
STARTCHAR Odieresis
ENCODING 214
SWIDTH 570 0
DWIDTH 7 0
BBX 7 13 0 -2
BITMAP
00
CC
CC
00
78
CC
CC
CC
CC
CC
78
00
00
ENDCHAR
STARTCHAR multiply
ENCODING 215
SWIDTH 570 0
DWIDTH 7 0
BBX 7 13 0 -2
BITMAP
00
00
00
00
00
CC
78
30
78
CC
00
00
00
ENDCHAR
STARTCHAR Rcaron
ENCODING 216
SWIDTH 570 0
DWIDTH 7 0
BBX 7 13 0 -2
BITMAP
00
D8
70
00
F8
CC
CC
F0
D8
CC
C4
00
00
ENDCHAR
STARTCHAR Uring
ENCODING 217
SWIDTH 570 0
DWIDTH 7 0
BBX 7 13 0 -2
BITMAP
00
30
48
30
CC
CC
CC
CC
CC
CC
78
00
00
ENDCHAR
STARTCHAR Uacute
ENCODING 218
SWIDTH 570 0
DWIDTH 7 0
BBX 7 13 0 -2
BITMAP
00
18
30
00
CC
CC
CC
CC
CC
CC
78
00
00
ENDCHAR
STARTCHAR Uhungarumlaut
ENCODING 219
SWIDTH 570 0
DWIDTH 7 0
BBX 7 13 0 -2
BITMAP
00
6C
D8
00
CC
CC
CC
CC
CC
CC
78
00
00
ENDCHAR
STARTCHAR Udieresis
ENCODING 220
SWIDTH 570 0
DWIDTH 7 0
BBX 7 13 0 -2
BITMAP
00
CC
CC
00
CC
CC
CC
CC
CC
CC
78
00
00
ENDCHAR
STARTCHAR Yacute
ENCODING 221
SWIDTH 570 0
DWIDTH 7 0
BBX 7 13 0 -2
BITMAP
00
18
30
00
CC
48
78
30
30
30
30
00
00
ENDCHAR
STARTCHAR Tcedilla
ENCODING 222
SWIDTH 570 0
DWIDTH 7 0
BBX 7 13 0 -2
BITMAP
00
00
FC
30
30
30
30
30
30
30
30
30
60
ENDCHAR
STARTCHAR germandbls
ENCODING 223
SWIDTH 570 0
DWIDTH 7 0
BBX 7 13 0 -2
BITMAP
00
00
00
78
CC
CC
F8
CC
CC
CC
F8
80
00
ENDCHAR
STARTCHAR racute
ENCODING 224
SWIDTH 570 0
DWIDTH 7 0
BBX 7 13 0 -2
BITMAP
00
18
30
00
00
F8
CC
C0
C0
C0
C0
00
00
ENDCHAR
STARTCHAR aacute
ENCODING 225
SWIDTH 570 0
DWIDTH 7 0
BBX 7 13 0 -2
BITMAP
00
18
30
00
00
78
0C
7C
CC
DC
7C
00
00
ENDCHAR
STARTCHAR acircumflex
ENCODING 226
SWIDTH 570 0
DWIDTH 7 0
BBX 7 13 0 -2
BITMAP
00
70
D8
00
00
78
0C
7C
CC
DC
7C
00
00
ENDCHAR
STARTCHAR abreve
ENCODING 227
SWIDTH 570 0
DWIDTH 7 0
BBX 7 13 0 -2
BITMAP
00
44
38
00
00
78
0C
7C
CC
CC
7C
00
00
ENDCHAR
STARTCHAR adieresis
ENCODING 228
SWIDTH 570 0
DWIDTH 7 0
BBX 7 13 0 -2
BITMAP
00
6C
6C
00
00
78
0C
7C
CC
DC
7C
00
00
ENDCHAR
STARTCHAR lacute
ENCODING 229
SWIDTH 570 0
DWIDTH 7 0
BBX 7 13 0 -2
BITMAP
00
18
30
00
70
30
30
30
30
30
FC
00
00
ENDCHAR
STARTCHAR cacute
ENCODING 230
SWIDTH 570 0
DWIDTH 7 0
BBX 7 13 0 -2
BITMAP
00
18
30
00
00
78
CC
C0
C0
CC
78
00
00
ENDCHAR
STARTCHAR ccedilla
ENCODING 231
SWIDTH 570 0
DWIDTH 7 0
BBX 7 13 0 -2
BITMAP
00
00
00
00
00
78
CC
C0
C0
CC
78
30
60
ENDCHAR
STARTCHAR ccaron
ENCODING 232
SWIDTH 570 0
DWIDTH 7 0
BBX 7 13 0 -2
BITMAP
00
6C
38
00
00
78
CC
C0
C0
CC
78
00
00
ENDCHAR
STARTCHAR eacute
ENCODING 233
SWIDTH 570 0
DWIDTH 7 0
BBX 7 13 0 -2
BITMAP
00
18
30
00
00
78
CC
FC
C0
CC
78
00
00
ENDCHAR
STARTCHAR eogonek
ENCODING 234
SWIDTH 570 0
DWIDTH 7 0
BBX 7 13 0 -2
BITMAP
00
00
00
00
00
78
CC
FC
C0
CC
78
30
18
ENDCHAR
STARTCHAR edieresis
ENCODING 235
SWIDTH 570 0
DWIDTH 7 0
BBX 7 13 0 -2
BITMAP
00
6C
6C
00
00
78
CC
FC
C0
CC
78
00
00
ENDCHAR
STARTCHAR ecaron
ENCODING 236
SWIDTH 570 0
DWIDTH 7 0
BBX 7 13 0 -2
BITMAP
00
00
6C
38
00
78
CC
FC
C0
CC
78
00
00
ENDCHAR
STARTCHAR iacute
ENCODING 237
SWIDTH 570 0
DWIDTH 7 0
BBX 7 13 0 -2
BITMAP
00
18
30
00
00
70
30
30
30
30
78
00
00
ENDCHAR
STARTCHAR icircumflex
ENCODING 238
SWIDTH 570 0
DWIDTH 7 0
BBX 7 13 0 -2
BITMAP
00
70
D8
00
00
70
30
30
30
30
78
00
00
ENDCHAR
STARTCHAR dcaron
ENCODING 239
SWIDTH 570 0
DWIDTH 7 0
BBX 7 13 0 -2
BITMAP
00
00
1E
1E
18
78
D8
D8
D8
D8
78
00
00
ENDCHAR
STARTCHAR dmacron
ENCODING 240
SWIDTH 570 0
DWIDTH 7 0
BBX 7 13 0 -2
BITMAP
00
00
0C
3E
0C
7C
CC
CC
CC
CC
7C
00
00
ENDCHAR
STARTCHAR nacute
ENCODING 241
SWIDTH 570 0
DWIDTH 7 0
BBX 7 13 0 -2
BITMAP
00
18
30
00
00
F8
CC
CC
CC
CC
CC
00
00
ENDCHAR
STARTCHAR ncaron
ENCODING 242
SWIDTH 570 0
DWIDTH 7 0
BBX 7 13 0 -2
BITMAP
00
6C
38
00
00
F8
CC
CC
CC
CC
CC
00
00
ENDCHAR
STARTCHAR oacute
ENCODING 243
SWIDTH 570 0
DWIDTH 7 0
BBX 7 13 0 -2
BITMAP
00
18
30
00
00
78
CC
CC
CC
CC
78
00
00
ENDCHAR
STARTCHAR ocircumflex
ENCODING 244
SWIDTH 570 0
DWIDTH 7 0
BBX 7 13 0 -2
BITMAP
00
70
D8
00
00
78
CC
CC
CC
CC
78
00
00
ENDCHAR
STARTCHAR ohungarumlaut
ENCODING 245
SWIDTH 570 0
DWIDTH 7 0
BBX 7 13 0 -2
BITMAP
00
14
28
00
00
78
CC
CC
CC
CC
78
00
00
ENDCHAR
STARTCHAR odieresis
ENCODING 246
SWIDTH 570 0
DWIDTH 7 0
BBX 7 13 0 -2
BITMAP
00
6C
6C
00
00
78
CC
CC
CC
CC
78
00
00
ENDCHAR
STARTCHAR divide
ENCODING 247
SWIDTH 570 0
DWIDTH 7 0
BBX 7 13 0 -2
BITMAP
00
00
00
30
30
00
FC
00
30
30
00
00
00
ENDCHAR
STARTCHAR rcaron
ENCODING 248
SWIDTH 570 0
DWIDTH 7 0
BBX 7 13 0 -2
BITMAP
00
D8
70
00
00
F8
CC
C0
C0
C0
C0
00
00
ENDCHAR
STARTCHAR uring
ENCODING 249
SWIDTH 570 0
DWIDTH 7 0
BBX 7 13 0 -2
BITMAP
00
38
28
38
00
CC
CC
CC
CC
CC
7C
00
00
ENDCHAR
STARTCHAR uacute
ENCODING 250
SWIDTH 570 0
DWIDTH 7 0
BBX 7 13 0 -2
BITMAP
00
18
30
00
00
CC
CC
CC
CC
DC
7C
00
00
ENDCHAR
STARTCHAR uhungarumlaut
ENCODING 251
SWIDTH 570 0
DWIDTH 7 0
BBX 7 13 0 -2
BITMAP
00
14
28
00
00
CC
CC
CC
CC
CC
7C
00
00
ENDCHAR
STARTCHAR udieresis
ENCODING 252
SWIDTH 570 0
DWIDTH 7 0
BBX 7 13 0 -2
BITMAP
00
6C
6C
00
00
CC
CC
CC
CC
DC
7C
00
00
ENDCHAR
STARTCHAR yacute
ENCODING 253
SWIDTH 570 0
DWIDTH 7 0
BBX 7 13 0 -2
BITMAP
00
18
30
00
00
CC
CC
CC
DC
7C
0C
CC
78
ENDCHAR
STARTCHAR tcedilla
ENCODING 254
SWIDTH 570 0
DWIDTH 7 0
BBX 7 13 0 -2
BITMAP
00
00
00
60
60
F8
60
60
60
6C
38
30
60
ENDCHAR
STARTCHAR dotaccent
ENCODING 255
SWIDTH 570 0
DWIDTH 7 0
BBX 7 13 0 -2
BITMAP
30
30
00
00
00
00
00
00
00
00
00
00
00
ENDCHAR
ENDFONT
